<?xml version="1.0" encoding="iso-8859-1"?>
<!-- Uploaded to: SVG Repo, www.svgrepo.com, Generator: SVG Repo Mixer Tools -->
<svg version="1.1" id="Layer_1" xmlns="http://www.w3.org/2000/svg" xmlns:xlink="http://www.w3.org/1999/xlink" 
	 viewBox="0 0 512 512" xml:space="preserve">
<polyline style="fill:#65B4BB;" points="356.817,156.128 400.4,156.128 400.4,503.197 113.622,503.197 113.622,156.128 
	157.216,156.128 "/>
<path style="fill:#FED159;" d="M328.937,9.01H185.091c-15.395,0-27.875,12.48-27.875,27.875v164.494h199.597V36.886
	C356.813,21.491,344.332,9.01,328.937,9.01z"/>
<rect x="159.047" y="238.065" style="fill:#A0DBFD;" width="195.931" height="51.655"/>
<g>
	<rect x="159.047" y="321.786" style="fill:#57A3A7;" width="44.846" height="51.655"/>
	<rect x="310.137" y="321.786" style="fill:#57A3A7;" width="44.846" height="51.655"/>
	<rect x="234.586" y="321.786" style="fill:#57A3A7;" width="44.846" height="51.655"/>
	<rect x="159.047" y="403.715" style="fill:#57A3A7;" width="44.846" height="51.655"/>
	<rect x="310.137" y="403.715" style="fill:#57A3A7;" width="44.846" height="51.655"/>
	<rect x="234.586" y="403.715" style="fill:#57A3A7;" width="44.846" height="51.655"/>
</g>
<rect x="276.316" y="9.01" style="fill:#65B4BB;" width="40.756" height="192.369"/>
<path d="M399.389,204.118c4.919,0,8.906-3.988,8.906-8.907v-39.189c0-4.919-3.988-8.907-8.906-8.907h-34.68V36.783
	C364.709,16.501,348.209,0,327.927,0H184.08c-20.282,0-36.783,16.501-36.783,36.783v31.964c0,4.919,3.988,8.907,8.907,8.907
	c4.919,0,8.907-3.988,8.907-8.907V36.783c0-10.46,8.51-18.97,18.97-18.97h82.312v174.556H165.111V102.59
	c0-4.919-3.988-8.907-8.907-8.907c-4.919,0-8.907,3.988-8.907,8.907v44.528h-34.687c-4.919,0-8.907,3.988-8.907,8.907v347.069
	c0,4.919,3.988,8.906,8.907,8.906h286.778c4.919,0,8.906-3.988,8.906-8.906V225.493c0-4.919-3.988-8.907-8.906-8.907
	c-4.919,0-8.907,3.988-8.907,8.907v268.694H121.518V164.931h25.78v36.345c0,4.919,3.988,8.907,8.907,8.907h199.597
	c4.919,0,8.906-3.988,8.906-8.907v-36.345h25.773v30.282C390.482,200.131,394.47,204.118,399.389,204.118z M284.206,192.369V17.813
	h22.938v174.556H284.206z M346.896,192.369h-21.939V17.813h2.969c10.46,0,18.97,8.51,18.97,18.97V192.369z"/>
<path d="M362.878,237.962c0-4.919-3.988-8.907-8.906-8.907H158.037c-4.919,0-8.907,3.988-8.907,8.907v51.655
	c0,4.919,3.988,8.907,8.907,8.907h30.578c4.919,0,8.907-3.988,8.907-8.907s-3.988-8.906-8.907-8.906h-21.671v-33.842h178.121v33.842
	H219.49c-4.919,0-8.907,3.988-8.907,8.906s3.988,8.907,8.907,8.907h134.481c4.919,0,8.907-3.988,8.907-8.907L362.878,237.962
	L362.878,237.962z"/>
<path d="M211.79,321.678c0-4.919-3.988-8.907-8.907-8.907h-44.846c-4.919,0-8.907,3.988-8.907,8.907v51.655
	c0,4.919,3.988,8.907,8.907,8.907h44.846c4.919,0,8.907-3.988,8.907-8.907V321.678z M193.977,364.427h-27.033v-33.842h27.033
	V364.427z"/>
<path d="M362.878,321.678c0-4.919-3.988-8.907-8.906-8.907h-44.846c-4.919,0-8.907,3.988-8.907,8.907v51.655
	c0,4.919,3.988,8.907,8.907,8.907h44.846c4.919,0,8.906-3.988,8.906-8.907V321.678z M345.065,364.427h-27.033v-33.842h27.033
	V364.427z"/>
<path d="M287.333,321.678c0-4.919-3.988-8.907-8.907-8.907h-44.846c-4.919,0-8.907,3.988-8.907,8.907v51.655
	c0,4.919,3.988,8.907,8.907,8.907h44.846c4.919,0,8.907-3.988,8.907-8.907V321.678z M269.52,364.427h-27.033v-33.842h27.033V364.427
	z"/>
<path d="M202.884,394.708h-44.846c-4.919,0-8.907,3.988-8.907,8.907v51.655c0,4.919,3.988,8.907,8.907,8.907h44.846
	c4.919,0,8.907-3.988,8.907-8.907v-51.655C211.79,398.696,207.803,394.708,202.884,394.708z M193.977,446.364h-27.033v-33.842
	h27.033V446.364z"/>
<path d="M353.972,394.708h-44.846c-4.919,0-8.907,3.988-8.907,8.907v51.655c0,4.919,3.988,8.907,8.907,8.907h44.846
	c4.919,0,8.906-3.988,8.906-8.907v-51.655C362.878,398.696,358.89,394.708,353.972,394.708z M345.065,446.364h-27.033v-33.842
	h27.033V446.364z"/>
<path d="M278.427,394.708h-44.846c-4.919,0-8.907,3.988-8.907,8.907v51.655c0,4.919,3.988,8.907,8.907,8.907h44.846
	c4.919,0,8.907-3.988,8.907-8.907v-51.655C287.333,398.696,283.345,394.708,278.427,394.708z M269.52,446.364h-27.033v-33.842
	h27.033V446.364z"/>
</svg>